/* XPM */
static char * close_prelight_xpm[] = {
"24 26 4 1",
" 	c None",
".	c #D7D9DA",
"+	c #FE0002",
"@	c #FFFFFF",
"........................",
"........................",
"........................",
"........................",
"........................",
"........................",
".....++++++++++++++.....",
".....+@++++++++++@+.....",
".....++++++++++++++.....",
".....++++++++++++++.....",
".....++++++@@++++++.....",
".....+++++@++@+++++.....",
".....++++@++++@++++.....",
".....++++@++++@++++.....",
".....+++++@++@+++++.....",
".....++++++@@++++++.....",
".....++++++++++++++.....",
".....++++++++++++++.....",
".....+@++++++++++@+.....",
".....++++++++++++++.....",
"........................",
"........................",
"........................",
"........................",
"........................",
"........................"};
