/* XPM */
static char * close_inactive_xpm[] = {
"24 26 4 1",
" 	c None",
".	c #BBBDBE",
"+	c #ACACAC",
"@	c #555555",
"........................",
"........................",
"........................",
"........................",
"........................",
"........................",
"........................",
"......+@@@@@@@@@@+......",
"......@@@@@@@@@@@@......",
"......@@@@@@@@@@@@......",
"......@@@@@++@@@@@......",
"......@@@@+@@+@@@@......",
"......@@@+@@@@+@@@......",
"......@@@+@@@@+@@@......",
"......@@@@+@@+@@@@......",
"......@@@@@++@@@@@......",
"......@@@@@@@@@@@@......",
"......@@@@@@@@@@@@......",
"......+@@@@@@@@@@+......",
"........................",
"........................",
"........................",
"........................",
"........................",
"........................",
"........................"};
