/* XPM */
static char * hide_inactive_xpm[] = {
"24 26 3 1",
" 	c None",
".	c #BBBDBE",
"+	c #5E5E5E",
"........................",
"........................",
"........................",
"........................",
"........................",
"........................",
"........................",
"........................",
"........................",
"........................",
"........................",
"........................",
"........................",
"........................",
"......++++++++++++......",
"......++++++++++++......",
"......++++++++++++......",
"......++++++++++++......",
"........................",
"........................",
"........................",
"........................",
"........................",
"........................",
"........................",
"........................"};
