/* XPM */
static char * hide_active_xpm[] = {
"24 26 4 1",
" 	c None",
".	c #D7D9DA",
"+	c #C9C9C9",
"@	c #DAB504",
"........................",
"........................",
"........................",
"........................",
"........................",
"........................",
"........................",
"........................",
"........................",
"........................",
"........................",
"........................",
"........................",
"........................",
"......++@@@@@@@@++......",
"......@@@@@@@@@@@@......",
"......@@@@@@@@@@@@......",
"......@@@@@@@@@@@@......",
"........................",
"........................",
"........................",
"........................",
"........................",
"........................",
"........................",
"........................"};
