/* XPM */
static char * maximize_prelight_xpm[] = {
"24 26 4 1",
" 	c None",
".	c #D7D9DA",
"+	c #009B00",
"@	c #FFFFFF",
"........................",
"........................",
"........................",
"........................",
"........................",
"........................",
".....++++++++++++++.....",
".....+@++++++++++@+.....",
".....++++++++++++++.....",
".....+++........+++.....",
".....+++........+++.....",
".....+++........+++.....",
".....+++........+++.....",
".....+++........+++.....",
".....+++........+++.....",
".....+++........+++.....",
".....+++........+++.....",
".....++++++++++++++.....",
".....+@++++++++++@+.....",
".....++++++++++++++.....",
"........................",
"........................",
"........................",
"........................",
"........................",
"........................"};
