/* XPM */
static char * maximize_active_xpm[] = {
"24 26 4 1",
" 	c None",
".	c #D7D9DA",
"+	c #FFFFFF",
"@	c #009B00",
"........................",
"........................",
"........................",
"........................",
"........................",
"........................",
"........................",
"......+@@@@@@@@@@+......",
"......@@@@@@@@@@@@......",
"......@@........@@......",
"......@@........@@......",
"......@@........@@......",
"......@@........@@......",
"......@@........@@......",
"......@@........@@......",
"......@@........@@......",
"......@@........@@......",
"......@@@@@@@@@@@@......",
"......+@@@@@@@@@@+......",
"........................",
"........................",
"........................",
"........................",
"........................",
"........................",
"........................"};
